<?xml version="1.0" encoding="utf-8"?>
<!-- Svg Vector Icons : http://www.onlinewebfonts.com/icon -->
<!DOCTYPE svg PUBLIC "-//W3C//DTD SVG 1.1//EN" "http://www.w3.org/Graphics/SVG/1.1/DTD/svg11.dtd">
<svg version="1.1" xmlns="http://www.w3.org/2000/svg" xmlns:xlink="http://www.w3.org/1999/xlink" x="0px" y="0px" viewBox="0 0 1000 1000" enable-background="new 0 0 1000 1000" xml:space="preserve">
<metadata> Svg Vector Icons : http://www.onlinewebfonts.com/icon </metadata>
<g><g><path d="M823.3,192.7C704,226.3,454.7,203.4,231.4,318.1C8.1,432.8,0.4,639.3,14.2,708.1c7.9,39.5,36.9,60.8,60.2,71.8c9.5-45,24.2-92.9,47.4-139.2c103.1-181.5,305-235.7,338.7-247.4c18-5.8,50.8-14.4,89.5-22.7c39.3-7.7,81.5-17.4,122.9-32.1c81.8-27.1,152.2-59.9,152.1-59.9c0.1,0-65.8,41.1-145.3,77.6c-38.8,19-84.2,34.6-121.7,45.4c-37.6,11.7-68.7,22.2-86,27.9c-17.2,5.9-71.4,22.6-133.1,60.9c-31.2,19.5-62.3,43.2-95.9,73.9c-30.7,25.8-55.8,61-73.4,99.8c-30.8,67.8-41.7,142.4-45.5,202.4c19.7,24.6,58.2,46.8,131.6,51.2C890.6,861,990,82.5,990,82.5S942.6,159,823.3,192.7z"/></g><g></g><g></g><g></g><g></g><g></g><g></g><g></g><g></g><g></g><g></g><g></g><g></g><g></g><g></g><g></g></g>
</svg>