<?xml version="1.0" encoding="UTF-8"?>
<svg width="752pt" height="752pt" version="1.1" viewBox="0 0 752 752" xmlns="http://www.w3.org/2000/svg">
 <g>
  <path d="m350.56 525.47v-50.32c0-10.578-2.7383-21.047-7.9219-30.277l-14.586-25.961c-9.0742-16.148-24.918-27.332-43-30.57l-22.168-32.883c-7.9766-11.828-20.785-18.516-34.117-18.988l15.711-70.488c2.5742-13.973-5.2031-27.773-18.527-32.832-3.4219-1.2891-6.9414-1.9414-10.453-1.9414-11.379 0-21.848 6.6953-26.668 17.059l-28.035 60.223c-3.6445 7.8789-5.5703 16.605-5.5703 25.246v67.863c0 7.3867 1.9023 14.668 5.4844 21.039l39.672 71.141c4.4961 8.0664 10.609 14.938 18.18 20.43l24.375 17.586 6.9375 50.16c1.5 10.828 10.875 18.992 21.801 18.992h67.238c6.6289 0 12.84-2.9414 17.035-8.0742 4.1992-5.1328 5.8477-11.801 4.5352-18.293zm-9.4297 55.285c-0.32031 0.39453-1.0352 1.0508-2.2188 1.0508h-67.238c-1.4219 0-2.6445-1.0625-2.8398-2.4727l-7.4961-54.219c-0.35938-2.5898-1.7578-4.9219-3.8789-6.4531l-27.676-19.965c-5.2812-3.8359-9.5508-8.625-12.684-14.242l-39.688-71.172c-1.9922-3.5391-3.043-7.5781-3.043-11.684v-67.863c0-5.8828 1.3125-11.832 3.7891-17.188l28.027-60.195c1.6953-3.6406 5.3516-5.9961 9.3164-5.9961 1.207 0 2.457 0.24219 3.6914 0.70703 4.6406 1.7578 7.3594 6.5781 6.5312 11.102l-16.418 73.629c-0.28125 1.2578-0.30469 2.5625-0.066406 3.832l0.13672 0.72266c-0.84766 0.38672-1.6914 0.80469-2.5234 1.2539-5.0586 2.7188-8.832 7.4492-10.367 12.98-1.5312 5.5312-0.72266 11.531 2.2188 16.465l42.859 71.836c2.7031 4.5391 8.582 6.0273 13.125 3.3125 4.5391-2.707 6.0234-8.582 3.3125-13.125l-42.859-71.832c-0.35938-0.60156-0.3125-1.1797-0.20703-1.5508 0.10156-0.375 0.35938-0.89062 0.97656-1.2227 1.8594-1 3.793-1.7305 5.7578-2.2031 0.12891-0.019531 0.25781-0.042969 0.39062-0.066406 0.29297-0.054688 0.58594-0.125 0.87109-0.20312 9.125-1.6797 18.637 2.0742 24.086 10.16l24.543 36.406c1.5859 2.3516 4.1367 3.8828 6.9609 4.1719 13.781 1.4102 26.059 9.4688 32.848 21.547l14.586 25.961c3.5781 6.3711 5.4688 13.598 5.4688 20.898v51.277c0 0.63672 0.0625 1.2695 0.1875 1.8945l10.113 50.051c0.23047 1.1719-0.27344 2.0039-0.59375 2.3945z"/>
  <path d="m591.2 308.47-28.031-60.195c-6.3164-13.559-22.469-20.617-37.16-15.105-13.293 5.0469-21.066 18.848-18.422 33.168l15.641 70.137c-13.332 0.47266-26.141 7.1562-34.117 18.988l-22.168 32.883c-18.082 3.2383-33.934 14.422-43.004 30.57l-14.582 25.961c-5.1797 9.2266-7.918 19.695-7.918 30.277v50.32l-9.9258 49.113c-1.3125 6.4961 0.33984 13.164 4.5391 18.297 4.1992 5.1289 10.406 8.0703 17.031 8.0703h67.238c10.934 0 20.305-8.1641 21.805-18.996l6.9375-50.16 24.395-17.602c7.5547-5.4805 13.668-12.348 18.164-20.414l39.656-71.113c3.5977-6.4023 5.5-13.688 5.5-21.066l-0.003906-67.867c0-8.6367-1.9258-17.363-5.5742-25.266zm-13.57 93.133c0 4.1016-1.0508 8.1406-3.0625 11.715l-39.672 71.141c-3.1328 5.6172-7.3984 10.41-12.66 14.227l-27.695 19.98c-2.1211 1.5312-3.5234 3.8633-3.8828 6.4531l-7.4961 54.215c-0.19141 1.4102-1.4102 2.4727-2.8359 2.4727h-67.242c-1.1836 0-1.8945-0.66016-2.2148-1.0508-0.32422-0.39062-0.82812-1.2227-0.59375-2.3789l10.121-50.051c0.125-0.625 0.19141-1.2578 0.19141-1.8984l-0.003906-51.277c0-7.3047 1.8867-14.531 5.4688-20.898l14.582-25.961c6.7812-12.078 19.059-20.133 32.844-21.547 2.8242-0.28906 5.375-1.8164 6.9609-4.1719l24.547-36.41c4.5938-6.8164 12.082-10.555 19.777-10.555 1.4297 0 2.8711 0.12891 4.2969 0.39453 0.28906 0.082032 0.57812 0.14844 0.87891 0.20703 0.13672 0.027343 0.26953 0.046874 0.40625 0.066406 1.957 0.47266 3.8828 1.2031 5.7383 2.1992 0.62109 0.33594 0.87891 0.85156 0.98047 1.2227 0.10156 0.375 0.14844 0.94922-0.21094 1.5508l-42.859 71.836c-2.707 4.5391-1.2227 10.414 3.3203 13.125 4.5352 2.7148 10.414 1.2266 13.125-3.3125l42.859-71.836c2.9414-4.9297 3.75-10.934 2.2148-16.465-1.5273-5.5352-5.3086-10.266-10.367-12.984-0.83203-0.44531-1.6719-0.86328-2.5195-1.25l0.13281-0.71875c0.23828-1.2695 0.21484-2.5742-0.066407-3.8359l-16.344-73.285c-0.89844-4.8711 1.8164-9.6875 6.4258-11.438 5.418-2.0391 10.844 0.54297 13.039 5.2773l28.016 60.172c2.4883 5.3789 3.8008 11.328 3.8008 17.211z"/>
  <path d="m430.19 347.64c23.113-13.699 25.07-48.891 25.223-52.855 0.13672-3.7539-1.9297-7.2383-5.2852-8.918-1.3008-0.64844-6.3828-3.0898-13.438-5.2578 17-15.762 18.59-44.434 18.723-47.988 0.13672-3.7539-1.9297-7.2383-5.2852-8.918-2.6094-1.3008-20.402-9.793-38.816-8.8398 1.5547-4.2773 2.4883-8.8438 2.4883-13.645 0-26.867-29.273-46.496-32.609-48.645-3.1602-2.0312-7.2109-2.0312-10.367 0-3.3359 2.1484-32.609 21.777-32.609 48.645 0 4.7969 0.93359 9.3594 2.4844 13.637-18.418-0.95703-36.211 7.5469-38.816 8.8477-3.3594 1.6797-5.4258 5.1641-5.2852 8.918 0.13281 3.5586 1.7227 32.23 18.715 47.988-7.0508 2.1641-12.133 4.6094-13.43 5.2578-3.3594 1.6797-5.4258 5.1641-5.2852 8.918 0.14844 3.9688 2.1055 39.152 25.215 52.855 7.0664 4.1914 14.941 5.6797 22.578 5.6797 8.0273 0 15.781-1.6484 22.047-3.5391v66.305c0 5.2852 4.2852 9.5742 9.5703 9.5742 5.2852 0 9.5742-4.2852 9.5742-9.5742l-0.007812-66.305c6.2617 1.8906 14.016 3.5391 22.043 3.5391 7.6367 0 15.512-1.4883 22.574-5.6797zm-28.777-110.71h0.003907c9.5625-5.6641 24.809-2.0781 34.215 1.3906-1.4727 9.9297-5.6328 25.02-15.199 30.691-9.5742 5.6641-24.801 2.0781-34.211-1.3906 1.4766-9.7969 5.6641-25.043 15.191-30.691zm-69.844 94.242c-9.5664-5.6719-13.73-20.766-15.199-30.688 9.4141-3.4766 24.652-7.0664 34.219-1.3945s13.727 20.762 15.199 30.684c-9.3047 3.4062-24.691 7.0469-34.219 1.3984zm0-62.16c-9.5664-5.6719-13.727-20.762-15.199-30.684 9.3047-3.4023 24.699-7.043 34.219-1.3984 9.5664 5.6719 13.73 20.766 15.199 30.688-9.4219 3.4766-24.66 7.0586-34.219 1.3945zm44.438-39.07c-7.6719-6.2695-18.652-17.648-18.652-28.723 0-11.121 10.863-22.398 18.648-28.723 7.793 6.3281 18.648 17.605 18.648 28.723 0 11.121-10.859 22.398-18.645 28.723zm25.406 69.148c9.5742-5.668 24.805-2.0742 34.219 1.3945-1.4727 9.9297-5.6328 25.02-15.203 30.691-9.5625 5.6758-24.809 2.082-34.215-1.3906 1.4727-9.9336 5.6367-25.023 15.199-30.695z"/>
 </g>
</svg>
